<svg xmlns="http://www.w3.org/2000/svg" width="50" height="50" xml:space="preserve"><path style="stroke:none;stroke-width:1;stroke-dasharray:none;stroke-linecap:butt;stroke-dashoffset:0;stroke-linejoin:miter;stroke-miterlimit:4;fill:#fff;fill-rule:evenodd;opacity:1" transform="matrix(.47 0 0 .47 79.68 79.68)" d="M44.742 446.356h40.175V61.218l.052-.407c.408-1.83 2.033-3.204 3.966-3.204h180.743l-.711-17.139H44.742v405.888zM437.659 179.97v16.325h29.599V179.97c0-4.068-1.677-7.781-4.32-10.477-2.697-2.645-6.361-4.323-10.426-4.323a14.791 14.791 0 0 0-10.479 4.323c-2.696 2.695-4.374 6.408-4.374 10.477zm29.599 24.411h-29.599v7.934h29.599v-7.934zm0 15.968h-29.599v212.377l14.8 32.039 14.799-32.039v-32.497h-22.686a4.023 4.023 0 0 1-4.012-4.019c0-2.186 1.828-4.018 4.012-4.018h22.686V220.349zM125.447 425.963c-2.237 0-4.065-1.779-4.065-4.019 0-2.186 1.829-4.017 4.065-4.017h158.826c2.189 0 4.07 1.831 4.07 4.017 0 2.239-1.881 4.019-4.07 4.019H125.447zm0-24.31c-2.237 0-4.065-1.831-4.065-4.018 0-2.238 1.829-4.019 4.065-4.019h158.826c2.189 0 4.07 1.78 4.07 4.019 0 2.187-1.881 4.018-4.07 4.018H125.447zm0-24.309a4.077 4.077 0 0 1-4.065-4.068c0-2.188 1.829-4.018 4.065-4.018h158.826c2.189 0 4.07 1.83 4.07 4.018 0 2.238-1.881 4.068-4.07 4.068H125.447zm0-24.36c-2.237 0-4.065-1.78-4.065-4.019 0-2.237 1.829-4.017 4.065-4.017h158.826c2.189 0 4.07 1.779 4.07 4.017 0 2.238-1.881 4.019-4.07 4.019H125.447zm0-24.309c-2.237 0-4.065-1.832-4.065-4.019a4.08 4.08 0 0 1 4.065-4.068h158.826c2.189 0 4.07 1.832 4.07 4.068 0 2.187-1.881 4.019-4.07 4.019H125.447zm247.674-67.692H130.584v25.48h242.537v-25.48zm-246.556-8.034H377.14a3.996 3.996 0 0 1 4.019 4.018v33.565c0 2.188-1.782 4.019-4.019 4.019H126.565c-2.236 0-4.065-1.831-4.065-4.019v-33.565c0-2.238 1.829-4.018 4.065-4.018zm72.675-128.616h-80.146v80.2h80.146v-80.2zm-84.218-8.035h88.236a4.027 4.027 0 0 1 4.019 4.016v88.237a3.997 3.997 0 0 1-4.019 4.018h-88.236c-2.184 0-4.019-1.78-4.019-4.018v-88.237c0-2.186 1.835-4.016 4.019-4.016zm210.038 34.988h79.95L325.06 71.34v79.946zm85.645 8.087h-89.664c-2.236 0-4.012-1.831-4.012-4.069v-89.66c-74.714 0-149.368-.05-224.075-.05v405.937h317.75V159.373z"/></svg>