<svg width="64" height="64" xmlns="http://www.w3.org/2000/svg"><path fill-rule="evenodd" clip-rule="evenodd" d="m32 13.374-2.535 1.621a3 3 0 0 1-2.065.44l-2.976-.45-1.657 2.512a3 3 0 0 1-1.707 1.24l-2.902.8-.491 2.969a3 3 0 0 1-1.056 1.828l-2.325 1.91.758 2.913a3 3 0 0 1-.22 2.099l-1.348 2.69 1.878 2.353a3 3 0 0 1 .652 2.008l-.137 3.006 2.672 1.385a3 3 0 0 1 1.413 1.569l1.098 2.802 3.004.178a3 3 0 0 1 1.929.859l2.142 2.113 2.818-1.059a3 3 0 0 1 2.11 0l2.818 1.059 2.142-2.113a3 3 0 0 1 1.929-.859l3.004-.178 1.098-2.802a3 3 0 0 1 1.413-1.569l2.672-1.385-.137-3.006a3 3 0 0 1 .652-2.008l1.878-2.352-1.348-2.691a3 3 0 0 1-.22-2.1l.758-2.912-2.325-1.91a3 3 0 0 1-1.056-1.828l-.491-2.97-2.902-.798a3 3 0 0 1-1.707-1.241l-1.657-2.513-2.976.45a3 3 0 0 1-2.065-.439L32 13.374Zm.539-2.03a1 1 0 0 0-1.078 0l-3.074 1.966a1 1 0 0 1-.688.147l-3.608-.546a1 1 0 0 0-.985.438l-2.008 3.047a1 1 0 0 1-.57.413l-3.517.97a1 1 0 0 0-.721.8l-.596 3.6a1 1 0 0 1-.352.61l-2.82 2.316a1 1 0 0 0-.333 1.024l.92 3.532a1 1 0 0 1-.074.7l-1.634 3.262a1 1 0 0 0 .113 1.072l2.277 2.852a1 1 0 0 1 .217.669l-.165 3.645a1 1 0 0 0 .538.933l3.24 1.68a1 1 0 0 1 .47.523l1.332 3.397a1 1 0 0 0 .872.633l3.642.217a1 1 0 0 1 .643.286l2.599 2.562a1 1 0 0 0 1.054.224l3.415-1.284a1 1 0 0 1 .704 0l3.416 1.284a1 1 0 0 0 1.053-.224l2.599-2.562a1 1 0 0 1 .642-.286l3.643-.217a1 1 0 0 0 .872-.633l1.331-3.398a1 1 0 0 1 .471-.522l3.24-1.68a1 1 0 0 0 .538-.933l-.165-3.645a1 1 0 0 1 .218-.67l2.276-2.851a1 1 0 0 0 .113-1.072l-1.634-3.262a1 1 0 0 1-.074-.7l.92-3.532a1 1 0 0 0-.333-1.024l-2.82-2.316a1 1 0 0 1-.352-.61l-.595-3.6a1 1 0 0 0-.721-.8l-3.519-.97a1 1 0 0 1-.569-.413l-2.008-3.047a1 1 0 0 0-.985-.438l-3.608.546a1 1 0 0 1-.688-.147l-3.074-1.965Z"/><path fill-rule="evenodd" clip-rule="evenodd" d="M30.922 15.502a2 2 0 0 1 2.155 0l2.139 1.368 2.51-.38a2 2 0 0 1 1.969.877l1.397 2.119 3.064.844-.531 1.928-3.064-.844a2 2 0 0 1-1.139-.827l-1.397-2.12-2.51.38a2 2 0 0 1-1.377-.292L32 17.187l-2.139 1.368a2 2 0 0 1-1.376.292l-2.51-.38-1.397 2.12a2 2 0 0 1-1.139.827l-2.447.674-.415 2.505a2 2 0 0 1-.704 1.218l-1.961 1.611.64 2.457a2 2 0 0 1-.147 1.4l-1.137 2.27 1.584 1.983a2 2 0 0 1 .435 1.339l-.115 2.535 2.253 1.169a2 2 0 0 1 .942 1.046l.926 2.363 2.534.15a2 2 0 0 1 1.286.573l1.807 1.782 2.376-.893a2 2 0 0 1 1.408 0l2.376.893 1.807-1.782a2 2 0 0 1 1.286-.572l2.534-.151.926-2.363a2 2 0 0 1 .942-1.046l2.253-1.169-.115-2.535a2 2 0 0 1 .435-1.339l1.584-1.984-1.137-2.27a2 2 0 0 1-.147-1.399l.801-3.075 1.936.504-.801 3.075 1.136 2.27a2 2 0 0 1-.225 2.143L46.71 36.78l.115 2.536a2 2 0 0 1-1.077 1.866l-2.254 1.168-.926 2.364a2 2 0 0 1-1.744 1.266l-2.534.151-1.807 1.782a2 2 0 0 1-2.108.448L32 47.468l-2.376.893a2 2 0 0 1-2.108-.448l-1.807-1.782-2.535-.15a2 2 0 0 1-1.743-1.267l-.926-2.364-2.254-1.168a2 2 0 0 1-1.077-1.866l.115-2.536-1.584-1.984a2 2 0 0 1-.225-2.143l1.136-2.27-.64-2.456a2 2 0 0 1 .666-2.05l1.962-1.611.415-2.504a2 2 0 0 1 1.442-1.602l2.447-.674 1.397-2.12a2 2 0 0 1 1.97-.876l2.509.38 2.139-1.368Z"/><path fill-rule="evenodd" clip-rule="evenodd" d="M39.555 24.168a1 1 0 0 1 .277 1.387L30.6 39.403l-6.432-9.648a1 1 0 0 1 1.664-1.11l4.768 7.152 7.568-11.352a1 1 0 0 1 1.387-.277Z"/></svg>