<?xml version="1.0" encoding="UTF-8" standalone="no" ?>
<!DOCTYPE svg PUBLIC "-//W3C//DTD SVG 1.1//EN" "http://www.w3.org/Graphics/SVG/1.1/DTD/svg11.dtd">
<svg xmlns="http://www.w3.org/2000/svg" xmlns:xlink="http://www.w3.org/1999/xlink" version="1.1" width="50" height="50" viewBox="0 0 50 50" xml:space="preserve">
<desc>Created with Fabric.js 3.6.2</desc>
<defs>
</defs>
<g transform="matrix(0.47 0 0 0.47 200 200)" id="B_-_184_x2C__contract_x2C__Business_x2C__document_x2C__legal_document_x2C__sign_contract"  >
<path style="stroke: none; stroke-width: 1; stroke-dasharray: none; stroke-linecap: butt; stroke-dashoffset: 0; stroke-linejoin: miter; stroke-miterlimit: 4; fill: rgb(255,255,255); fill-rule: evenodd; opacity: 1;"  transform=" translate(-256, -256)" d="M 44.742 446.356 h 40.175 V 61.626 v -0.102 v -0.101 l 0 0 v -0.103 l 0 0 v -0.102 l 0 0 l 0.052 -0.407 l 0 0 c 0.408 -1.83 2.033 -3.204 3.966 -3.204 h 180.743 l -0.711 -17.139 H 44.742 V 446.356 z M 437.659 179.97 v 16.325 h 29.599 V 179.97 c 0 -4.068 -1.677 -7.781 -4.32 -10.477 c -2.697 -2.645 -6.361 -4.323 -10.426 -4.323 c -4.124 0 -7.834 1.678 -10.479 4.323 C 439.337 172.188 437.659 175.901 437.659 179.97 z M 467.258 204.381 h -29.599 v 7.934 h 29.599 V 204.381 z M 467.258 220.349 h -29.599 v 212.377 l 14.8 32.039 l 14.799 -32.039 v -32.497 h -22.686 c -2.184 0 -4.012 -1.78 -4.012 -4.019 c 0 -2.186 1.828 -4.018 4.012 -4.018 h 22.686 V 220.349 z M 125.447 425.963 c -2.237 0 -4.065 -1.779 -4.065 -4.019 c 0 -2.186 1.829 -4.017 4.065 -4.017 h 158.826 c 2.189 0 4.07 1.831 4.07 4.017 c 0 2.239 -1.881 4.019 -4.07 4.019 H 125.447 z M 125.447 401.653 c -2.237 0 -4.065 -1.831 -4.065 -4.018 c 0 -2.238 1.829 -4.019 4.065 -4.019 h 158.826 c 2.189 0 4.07 1.78 4.07 4.019 c 0 2.187 -1.881 4.018 -4.07 4.018 H 125.447 z M 125.447 377.344 c -2.237 0 -4.065 -1.83 -4.065 -4.068 c 0 -2.188 1.829 -4.018 4.065 -4.018 h 158.826 c 2.189 0 4.07 1.83 4.07 4.018 c 0 2.238 -1.881 4.068 -4.07 4.068 H 125.447 z M 125.447 352.984 c -2.237 0 -4.065 -1.78 -4.065 -4.019 c 0 -2.237 1.829 -4.017 4.065 -4.017 h 158.826 c 2.189 0 4.07 1.779 4.07 4.017 c 0 2.238 -1.881 4.019 -4.07 4.019 H 125.447 z M 125.447 328.675 c -2.237 0 -4.065 -1.832 -4.065 -4.019 c 0 -2.236 1.829 -4.068 4.065 -4.068 h 158.826 c 2.189 0 4.07 1.832 4.07 4.068 c 0 2.187 -1.881 4.019 -4.07 4.019 H 125.447 z M 373.121 260.983 H 130.584 v 25.48 h 242.537 V 260.983 z M 126.565 252.949 h 250.575 c 2.236 0 4.019 1.78 4.019 4.018 v 33.565 c 0 2.188 -1.782 4.019 -4.019 4.019 H 126.565 c -2.236 0 -4.065 -1.831 -4.065 -4.019 v -33.565 C 122.5 254.729 124.329 252.949 126.565 252.949 z M 199.24 124.333 h -80.146 v 80.2 h 80.146 V 124.333 z M 115.022 116.298 h 88.236 c 2.236 0 4.019 1.83 4.019 4.016 v 88.237 c 0 2.237 -1.783 4.018 -4.019 4.018 h -88.236 c -2.184 0 -4.019 -1.78 -4.019 -4.018 v -88.237 C 111.003 118.128 112.838 116.298 115.022 116.298 z M 325.06 151.286 h 79.95 L 325.06 71.34 V 151.286 z M 410.705 159.373 h -89.664 c -2.236 0 -4.012 -1.831 -4.012 -4.069 v -89.66 c -74.714 0 -149.368 -0.05 -224.075 -0.05 c 0 135.329 0 270.606 0 405.937 h 317.75 V 159.373 z" stroke-linecap="round" />
</g>
</svg>