<svg width="64" height="64" viewBox="0 0 64 64"  xmlns="http://www.w3.org/2000/svg">
<path fill-rule="evenodd" clip-rule="evenodd" d="M32 13.374L29.4647 14.9954C28.8523 15.387 28.1185 15.543 27.3998 15.4343L24.4241 14.9843L22.7675 17.4968C22.3673 18.1036 21.7604 18.5445 21.0596 18.7376L18.1582 19.5368L17.6667 22.5058C17.5479 23.223 17.1728 23.8726 16.6111 24.334L14.2856 26.2443L15.0442 29.1566C15.2274 29.86 15.149 30.606 14.8235 31.256L13.476 33.9469L15.3536 36.2989C15.8071 36.867 16.0389 37.5805 16.0059 38.3066L15.8694 41.313L18.5413 42.698C19.1866 43.0325 19.6886 43.59 19.9538 44.2668L21.0519 47.0687L24.0561 47.2472C24.7817 47.2903 25.467 47.5955 25.9846 48.1059L28.1274 50.219L30.9445 49.1601C31.6249 48.9044 32.3751 48.9044 33.0555 49.1601L35.8726 50.219L38.0154 48.1059C38.533 47.5955 39.2183 47.2903 39.9439 47.2472L42.9481 47.0687L44.0462 44.2668C44.3114 43.59 44.8134 43.0325 45.4587 42.698L48.1306 41.313L47.9941 38.3066C47.9611 37.5805 48.1929 36.867 48.6464 36.2989L50.5239 33.9469L49.1764 31.256C48.851 30.606 48.7726 29.86 48.9558 29.1566L49.7144 26.2443L47.3889 24.334C46.8271 23.8726 46.4521 23.223 46.3333 22.5058L45.8418 19.5368L42.9404 18.7376C42.2396 18.5445 41.6327 18.1036 41.2325 17.4968L39.5759 14.9843L36.6002 15.4343C35.8815 15.543 35.1477 15.3871 34.5353 14.9954L32 13.374ZM32.5388 11.3446C32.2103 11.1345 31.7897 11.1345 31.4612 11.3446L28.3871 13.3105C28.183 13.441 27.9384 13.493 27.6988 13.4568L24.0909 12.9112C23.7053 12.8529 23.3211 13.0239 23.1065 13.3494L21.0978 16.3958C20.9644 16.5981 20.7621 16.745 20.5285 16.8094L17.0105 17.7784C16.6346 17.882 16.3532 18.1945 16.2895 18.5792L15.6935 22.1792C15.6539 22.4182 15.5289 22.6348 15.3417 22.7886L12.522 25.1047C12.2207 25.3522 12.0907 25.7522 12.189 26.1295L13.1088 29.6607C13.1699 29.8952 13.1437 30.1438 13.0352 30.3605L11.4014 33.6233C11.2268 33.9719 11.2708 34.3902 11.514 34.6949L13.7905 37.5467C13.9417 37.736 14.019 37.9738 14.008 38.2159L13.8425 41.8611C13.8248 42.2506 14.0351 42.6149 14.3812 42.7943L17.6209 44.4736C17.836 44.5851 18.0033 44.7709 18.0917 44.9965L19.4232 48.3939C19.5654 48.7569 19.9057 49.0042 20.2949 49.0273L23.9375 49.2437C24.1793 49.2581 24.4078 49.3598 24.5803 49.5299L27.1785 52.0921C27.4561 52.3658 27.8675 52.4533 28.2325 52.3161L31.6482 51.0322C31.875 50.947 32.125 50.947 32.3518 51.0322L35.7675 52.3161C36.1325 52.4533 36.5439 52.3658 36.8215 52.0921L39.4197 49.5299C39.5922 49.3598 39.8206 49.2581 40.0625 49.2437L43.7051 49.0273C44.0943 49.0042 44.4346 48.7569 44.5768 48.3939L45.9083 44.9965C45.9967 44.7709 46.164 44.5851 46.3791 44.4736L49.6188 42.7943C49.9649 42.6149 50.1752 42.2506 50.1575 41.8611L49.992 38.2159C49.981 37.9738 50.0583 37.736 50.2095 37.5467L52.486 34.6949C52.7292 34.3902 52.7732 33.9719 52.5986 33.6233L50.9648 30.3605C50.8563 30.1438 50.8301 29.8952 50.8912 29.6607L51.811 26.1295C51.9093 25.7522 51.7793 25.3522 51.478 25.1047L48.6583 22.7886C48.4711 22.6348 48.3461 22.4182 48.3065 22.1792L47.7105 18.5792C47.6468 18.1945 47.3654 17.882 46.9895 17.7784L43.4715 16.8094C43.2379 16.745 43.0356 16.5981 42.9022 16.3958L40.8935 13.3494C40.6789 13.0239 40.2946 12.8529 39.9091 12.9112L36.3012 13.4568C36.0616 13.493 35.817 13.441 35.6129 13.3105L32.5388 11.3446Z" />
<path fill-rule="evenodd" clip-rule="evenodd" d="M30.9225 15.5021C31.5794 15.082 32.4206 15.082 33.0775 15.5021L35.216 16.8697L37.7259 16.4901C38.4969 16.3735 39.2654 16.7157 39.6947 17.3667L41.092 19.4859L44.1559 20.3298L43.6248 22.258L40.5609 21.4141C40.0937 21.2854 39.6891 20.9914 39.4223 20.5868L38.025 18.4677L35.5151 18.8472C35.0359 18.9197 34.5468 18.8157 34.1385 18.5546L32 17.187L29.8615 18.5546C29.4532 18.8157 28.9641 18.9197 28.4849 18.8472L25.975 18.4677L24.5776 20.5868C24.3109 20.9914 23.9063 21.2854 23.4391 21.4141L20.9918 22.0882L20.5772 24.5925C20.498 25.0706 20.248 25.5037 19.8735 25.8113L17.912 27.4225L18.5518 29.879C18.674 30.348 18.6217 30.8453 18.4047 31.2786L17.2682 33.5484L18.8518 35.5322C19.1541 35.911 19.3087 36.3866 19.2867 36.8707L19.1716 39.4065L21.4252 40.5747C21.8555 40.7977 22.1901 41.1694 22.3669 41.6206L23.2931 43.984L25.8271 44.1345C26.3108 44.1633 26.7677 44.3667 27.1128 44.7069L28.9202 46.4893L31.2963 45.5962C31.7499 45.4257 32.25 45.4257 32.7037 45.5962L35.0798 46.4893L36.8872 44.7069C37.2323 44.3667 37.6891 44.1633 38.1729 44.1345L40.7069 43.984L41.6331 41.6206C41.8099 41.1694 42.1445 40.7977 42.5748 40.5747L44.8284 39.4065L44.7133 36.8707C44.6913 36.3866 44.8458 35.9109 45.1482 35.5322L46.7318 33.5484L45.5953 31.2786C45.3783 30.8453 45.326 30.348 45.4481 29.879L46.2492 26.8037L48.1846 27.3078L47.3836 30.3831L48.5202 32.6529C48.8693 33.3501 48.7814 34.1867 48.2949 34.7961L46.7112 36.78L46.8264 39.3158C46.8617 40.0948 46.4411 40.8233 45.7488 41.1821L43.4952 42.3503L42.569 44.7137C42.2844 45.4397 41.6039 45.9342 40.8255 45.9804L38.2915 46.131L36.4841 47.9134C35.9289 48.4609 35.106 48.6358 34.3761 48.3614L32 47.4683L29.6239 48.3614C28.894 48.6358 28.0711 48.4609 27.5159 47.9134L25.7085 46.131L23.1745 45.9804C22.3961 45.9342 21.7156 45.4397 21.431 44.7137L20.5048 42.3503L18.2512 41.1821C17.5589 40.8233 17.1383 40.0948 17.1736 39.3158L17.2888 36.78L15.7051 34.7961C15.2186 34.1867 15.1307 33.3501 15.4798 32.6529L16.6164 30.3831L15.9766 27.9267C15.78 27.1721 16.04 26.372 16.6425 25.8771L18.6041 24.2658L19.0187 21.7615C19.146 20.9922 19.7089 20.3671 20.4607 20.16L22.908 19.4859L24.3053 17.3667C24.7346 16.7157 25.5031 16.3735 26.2741 16.4901L28.784 16.8697L30.9225 15.5021Z" />
<path fill-rule="evenodd" clip-rule="evenodd" d="M39.5547 24.1679C40.0142 24.4743 40.1384 25.0952 39.832 25.5547L30.6 39.4028L24.1679 29.7547C23.8616 29.2952 23.9858 28.6743 24.4453 28.368C24.9048 28.0616 25.5257 28.1858 25.832 28.6453L30.6 35.7972L38.1679 24.4453C38.4743 23.9858 39.0952 23.8616 39.5547 24.1679Z" />
</svg>
